<svg width="16" height="16" viewBox="0 0 16 16" fill="none" xmlns="http://www.w3.org/2000/svg">
<g clip-path="url(#clip0_281_372)">
<path d="M7.53743 1.89376L7.54681 3.79689L7.84368 3.81876C9.23743 3.92501 10.7156 4.44064 11.9499 5.25001C13.3062 6.14376 14.3468 7.31564 15.0624 8.76564C15.4874 9.62189 15.7093 10.2969 15.8593 11.1719C15.9812 11.8969 16.0031 12.3844 15.9937 14.2469L15.9843 15.9813L15.4249 14.6688C14.8093 13.225 14.6374 12.875 14.2906 12.35C13.7281 11.4969 13.0781 10.8094 12.2499 10.1906C10.9312 9.20314 9.32181 8.60626 7.66243 8.49064L7.53118 8.48126V10.3656C7.53118 11.4031 7.52181 12.25 7.51243 12.25C7.50306 12.25 6.34056 11.3063 4.92806 10.15C3.51556 8.99376 1.83431 7.62189 1.19368 7.09689C0.556183 6.57501 0.0311832 6.13751 0.0311832 6.12501C0.0311832 6.11251 0.399933 5.80314 0.849933 5.43439C1.30306 5.06876 2.96556 3.71251 4.54681 2.42501C6.12806 1.14064 7.44681 0.0656366 7.47493 0.0375118C7.52806 -0.00623798 7.53118 0.087512 7.53743 1.89376Z" fill="#FAFAFA" fill-opacity="0.7"/>
</g>
<defs>
<clipPath id="clip0_281_372">
<rect width="16" height="16" fill="white" transform="matrix(-1 0 0 1 16 0)"/>
</clipPath>
</defs>
</svg>
