<svg width="44" height="45" viewBox="0 0 44 45" fill="none" xmlns="http://www.w3.org/2000/svg">
<rect x="0.5" y="1" width="43" height="43" rx="9.5" fill="#0077C0" fill-opacity="0.1"/>
<rect x="0.5" y="1" width="43" height="43" rx="9.5" stroke="#0077C0"/>
<g clip-path="url(#clip0_127_861)">
<path d="M21.3063 13.3406L21.3203 16.1953L21.7656 16.2281C23.8563 16.3875 26.0735 17.1609 27.925 18.375C29.9594 19.7156 31.5203 21.4734 32.5938 23.6484C33.2313 24.9328 33.5641 25.9453 33.7891 27.2578C33.9719 28.3453 34.0047 29.0766 33.9906 31.8703L33.9766 34.4719L33.1375 32.5031C32.2141 30.3375 31.9563 29.8125 31.436 29.025C30.5922 27.7453 29.6172 26.714 28.375 25.7859C26.3969 24.3047 23.9828 23.4094 21.4938 23.2359L21.2969 23.2219V26.0484C21.2969 27.6047 21.2828 28.875 21.2688 28.875C21.2547 28.875 19.511 27.4594 17.3922 25.725C15.2735 23.9906 12.7516 21.9328 11.7906 21.1453C10.8344 20.3625 10.0469 19.7062 10.0469 19.6875C10.0469 19.6687 10.6 19.2047 11.275 18.6515C11.9547 18.1031 14.4485 16.0687 16.8203 14.1375C19.1922 12.2109 21.1703 10.5984 21.2125 10.5562C21.2922 10.4906 21.2969 10.6312 21.3063 13.3406Z" fill="#FAFAFA"/>
</g>
<defs>
<clipPath id="clip0_127_861">
<rect width="24" height="24" fill="white" transform="matrix(-1 0 0 1 34 10.5)"/>
</clipPath>
</defs>
</svg>
