<svg width="32" height="32" viewBox="0 0 32 32" fill="none" xmlns="http://www.w3.org/2000/svg">
<mask id="mask0_182_675" style="mask-type:alpha" maskUnits="userSpaceOnUse" x="0" y="0" width="32" height="32">
<rect width="32" height="32" fill="#D9D9D9"/>
</mask>
<g mask="url(#mask0_182_675)">
<path d="M11.1998 22.6667L15.9998 17.8667L20.7998 22.6667L22.6665 20.8L17.8665 16L22.6665 11.2L20.7998 9.33335L15.9998 14.1334L11.1998 9.33335L9.33317 11.2L14.1332 16L9.33317 20.8L11.1998 22.6667ZM15.9998 29.3334C14.1554 29.3334 12.4221 28.9834 10.7998 28.2834C9.17761 27.5834 7.7665 26.6334 6.5665 25.4334C5.3665 24.2334 4.4165 22.8222 3.7165 21.2C3.0165 19.5778 2.6665 17.8445 2.6665 16C2.6665 14.1556 3.0165 12.4222 3.7165 10.8C4.4165 9.1778 5.3665 7.76669 6.5665 6.56669C7.7665 5.36669 9.17761 4.41669 10.7998 3.71669C12.4221 3.01669 14.1554 2.66669 15.9998 2.66669C17.8443 2.66669 19.5776 3.01669 21.1998 3.71669C22.8221 4.41669 24.2332 5.36669 25.4332 6.56669C26.6332 7.76669 27.5832 9.1778 28.2832 10.8C28.9832 12.4222 29.3332 14.1556 29.3332 16C29.3332 17.8445 28.9832 19.5778 28.2832 21.2C27.5832 22.8222 26.6332 24.2334 25.4332 25.4334C24.2332 26.6334 22.8221 27.5834 21.1998 28.2834C19.5776 28.9834 17.8443 29.3334 15.9998 29.3334ZM15.9998 26.6667C18.9776 26.6667 21.4998 25.6334 23.5665 23.5667C25.6332 21.5 26.6665 18.9778 26.6665 16C26.6665 13.0222 25.6332 10.5 23.5665 8.43335C21.4998 6.36669 18.9776 5.33335 15.9998 5.33335C13.0221 5.33335 10.4998 6.36669 8.43317 8.43335C6.3665 10.5 5.33317 13.0222 5.33317 16C5.33317 18.9778 6.3665 21.5 8.43317 23.5667C10.4998 25.6334 13.0221 26.6667 15.9998 26.6667Z" fill="#1D242B" fill-opacity="0.5"/>
</g>
</svg>
