<svg width="30" height="18" viewBox="0 0 30 18" fill="none" xmlns="http://www.w3.org/2000/svg">
<rect width="30" height="18" fill="#1E1E1E"/>
<g id="Tela de Cadastro - Empresa &#62; Etapa 3 [SELECT-OPEN]">
<rect width="430" height="975" transform="translate(-115 -389)" fill="#1D242B"/>
<g id="Frame 26">
<rect width="430" height="663" transform="translate(-115 -77)" fill="#FAFAFA"/>
<g id="Frame 25">
<g id="card-button">
<rect x="-64.5" y="-56.5" width="159" height="116" rx="9.5" fill="#FAFAFA"/>
<rect x="-64.5" y="-56.5" width="159" height="116" rx="9.5" stroke="#0077C0"/>
<g id="carro 1">
<g id="Group">
<path id="Vector" d="M10.6688 0.612505C10.5563 0.681255 9.77509 1.85001 8.47509 3.87501L6.45634 7.03126L4.05634 7.06251C1.69384 7.09376 1.65009 7.09376 1.32509 7.24376C0.881337 7.44376 0.468837 7.91251 0.337587 8.35626C0.200087 8.83751 0.243837 11.35 0.400087 11.9063C0.875087 13.5938 2.36884 14.925 4.04384 15.1563L4.36259 15.2L4.58134 15.6438C4.98134 16.45 5.80009 17.1188 6.65634 17.3375C7.11884 17.4625 7.92509 17.4625 8.36884 17.3438C9.23759 17.1125 10.1001 16.4063 10.4876 15.6063L10.6876 15.1875H15.0001H19.3126L19.5126 15.6063C19.7688 16.1375 20.3876 16.775 20.9126 17.05C21.8876 17.5563 22.9938 17.575 23.9938 17.0875C24.4876 16.8438 25.1751 16.1438 25.4376 15.6063L25.6438 15.1875H26.5938C27.3688 15.1875 27.6251 15.1625 27.9501 15.0625C28.4688 14.9063 28.9813 14.5313 29.2688 14.1125C29.7063 13.4813 29.7126 13.4313 29.7376 11.2875C29.7563 9.50001 29.7501 9.33126 29.6313 8.94376C29.4063 8.19376 28.9563 7.67501 28.2501 7.35001C28.0626 7.26251 27.7813 7.16876 27.6251 7.15001L27.3438 7.11251L26.5126 5.47501C24.3438 1.22501 24.0688 0.718756 23.8813 0.606256C23.7126 0.506256 23.2438 0.500006 17.2688 0.500006C11.2688 0.500006 10.8313 0.506256 10.6688 0.612505ZM16.1126 4.54376L16.0938 7.09376L12.1626 7.11251C8.51259 7.12501 8.23759 7.11876 8.27509 7.01876C8.30009 6.96251 9.02509 5.81251 9.88759 4.45626L11.4626 2.00001H13.7938H16.1251L16.1126 4.54376ZM24.3376 4.52501C25.0438 5.91251 25.6251 7.06251 25.6251 7.08751C25.6251 7.10626 23.8251 7.12501 21.6251 7.12501H17.6251V4.56251V2.00001H20.3376H23.0563L24.3376 4.52501ZM8.20009 12.5688C8.56884 12.75 8.85634 13.0375 9.05009 13.4063C9.26884 13.8313 9.28134 14.5125 9.06884 14.9563C8.75634 15.5938 7.96259 16.0688 7.35634 15.975C6.70634 15.8688 6.16259 15.4313 5.93759 14.8375C5.67509 14.1313 5.82509 13.4813 6.36884 12.9313C6.93134 12.3688 7.55634 12.2438 8.20009 12.5688ZM23.2501 12.6125C23.6313 12.8063 24.0001 13.2375 24.1188 13.625C24.2938 14.2063 24.1501 14.925 23.7876 15.3563C23.2563 15.975 22.4251 16.15 21.7563 15.7813C21.1376 15.4375 20.8126 14.8938 20.8126 14.1875C20.8126 13.3813 21.2563 12.7625 22.0313 12.4813C22.4251 12.3438 22.7938 12.3813 23.2501 12.6125Z" fill="#0077C0"/>
</g>
</g>
</g>
</g>
</g>
</g>
</svg>
