<svg width="250" height="64" viewBox="0 0 250 64" fill="none" xmlns="http://www.w3.org/2000/svg">
<g clip-path="url(#clip0_5_340)">
<path d="M85.3647 20.9578H91.6064C93.8187 20.9578 95.7502 19.2736 95.8933 17.0466C96.0497 14.6064 94.134 12.5777 91.749 12.5777H89.6978C86.3931 12.5777 83.7142 15.2801 83.7142 18.6139V20.5729C83.3297 20.506 82.941 20.4506 82.5465 20.4141C82.5202 20.4073 82.4935 20.4016 82.4673 20.3948L76.0529 4.21149C75.3651 2.47627 73.6993 1.33871 71.8471 1.33871C65.1613 0.56012 58.4464 0.11597 51.7282 0L52.8339 6.32156C52.8663 6.50779 53.0047 6.65552 53.1859 6.70316C54.9323 7.16415 56.5846 7.85853 58.1054 8.75645C58.2671 8.85221 58.4679 8.84595 58.6215 8.7372L63.9344 4.98574C64.1257 4.85053 64.3857 4.87362 64.5512 5.04012L68.8376 9.36421C69.0027 9.53071 69.0256 9.79296 68.8915 9.98641L65.1728 15.3456C65.0654 15.5005 65.0592 15.7031 65.1537 15.8662C66.0438 17.4003 66.7321 19.0672 67.1891 20.8289C67.2363 21.0117 67.3828 21.1513 67.5674 21.184L73.9565 22.3216C74.1864 22.3625 74.3543 22.5641 74.3543 22.7999V28.915C74.3543 29.1508 74.1864 29.3524 73.9565 29.3933L67.5674 30.5309C67.3828 30.5636 67.2363 30.7032 67.1891 30.886C66.7321 32.6477 66.0438 34.3141 65.1537 35.8487C65.0588 36.0118 65.065 36.2144 65.1728 36.3693L68.8915 41.7285C69.0256 41.9214 69.0027 42.1837 68.8376 42.3507L64.5512 46.6748C64.3862 46.8413 64.1262 46.8644 63.9344 46.7291L58.6215 42.9777C58.4679 42.8689 58.2671 42.8627 58.1054 42.9584C56.5846 43.8564 54.9323 44.5507 53.1859 45.0117C53.0047 45.0599 52.8663 45.2071 52.8339 45.3933L51.7172 51.777H65.7461C67.1166 51.777 68.342 52.7567 68.5371 54.1252C68.7384 55.5366 69.9362 56.5794 71.3443 56.5794H76.2838V62.0377C76.2838 62.9014 76.9778 63.602 77.8346 63.602H90.8994C91.7561 63.602 92.4502 62.9014 92.4502 62.0377V56.5794H94.3516C95.2078 56.5794 95.9023 55.8792 95.9023 55.015V35.1755C95.9023 28.4964 91.5028 22.7787 85.3647 20.9578ZM85.2087 43.8848H75.2472C73.9302 43.8848 72.8622 42.8073 72.8622 41.4787C72.8622 37.0315 76.436 33.4263 80.8445 33.4263H85.2087C88.0717 33.4263 90.3924 35.7673 90.3924 38.6555C90.3924 41.5437 88.0717 43.8848 85.2087 43.8848Z" fill="#007FE8"/>
<path d="M43.5688 45.3933C43.5364 45.2071 43.3985 45.0594 43.2168 45.0117C41.4705 44.5507 39.8186 43.8564 38.2974 42.9584C38.1357 42.8627 37.9349 42.8689 37.7813 42.9777L32.4688 46.7291C32.2775 46.8644 32.0175 46.8413 31.852 46.6748L27.5656 42.3507C27.4005 42.1842 27.3776 41.9219 27.5117 41.7285L31.2305 36.3693C31.3378 36.2144 31.344 36.0118 31.2495 35.8487C30.3594 34.3146 29.6711 32.6477 29.2141 30.886C29.1669 30.7032 29.0205 30.5636 28.8359 30.5309L22.4468 29.3933C22.2169 29.3524 22.0489 29.1508 22.0489 28.915V22.7999C22.0489 22.5641 22.2169 22.3625 22.4468 22.3216L28.8359 21.184C29.0205 21.1513 29.1669 21.0122 29.2141 20.8289C29.6711 19.0672 30.3594 17.4008 31.2495 15.8662C31.3445 15.7031 31.3383 15.5005 31.2305 15.3456L27.5117 9.98641C27.3776 9.79344 27.4005 9.53119 27.5656 9.36421L31.852 5.04012C32.0171 4.87362 32.277 4.85053 32.4688 4.98574L37.7813 8.7372C37.9349 8.84595 38.1357 8.85221 38.2974 8.75645C39.8181 7.85853 41.4705 7.16415 43.2168 6.70316C43.3981 6.65504 43.5359 6.50779 43.5688 6.32156L44.6746 0C37.9558 0.11597 31.2414 0.56012 24.5552 1.33871C22.7029 1.33871 21.0372 2.47675 20.3494 4.21149L13.935 20.3948C13.9087 20.4016 13.882 20.4073 13.8558 20.4141C13.4608 20.4506 13.0725 20.506 12.6881 20.5729V18.6139C12.6881 15.2801 10.0092 12.5777 6.70444 12.5777H4.65327C2.26774 12.5777 0.352064 14.6064 0.509001 17.0466C0.652105 19.2736 2.58352 20.9578 4.7959 20.9578H11.0376C4.89941 22.7787 0.500413 28.4964 0.500413 35.1755V55.015C0.500413 55.8787 1.19447 56.5794 2.05118 56.5794H3.95254V62.0377C3.95254 62.9014 4.64708 63.602 5.50333 63.602H18.5682C19.4244 63.602 20.119 62.9014 20.119 62.0377V56.5794H25.0584C26.4665 56.5794 27.6643 55.5366 27.8656 54.1252C28.0612 52.7567 29.2862 51.777 30.6566 51.777H44.686L43.5688 45.3933ZM23.5406 41.4787C23.5406 42.8073 22.4725 43.8848 21.1555 43.8848H11.1941C8.33105 43.8848 6.01039 41.5437 6.01039 38.6555C6.01039 35.7673 8.33105 33.4263 11.1941 33.4263H15.5583C19.9668 33.4263 23.5406 37.0315 23.5406 41.4787Z" fill="#00A1EA"/>
<path d="M85.3646 20.9578H91.6063C93.8187 20.9578 95.7501 19.2736 95.8932 17.0466C96.0497 14.6064 94.134 12.5777 91.7489 12.5777H89.6978C86.3931 12.5777 83.7142 15.2801 83.7142 18.6139V20.5729C83.3297 20.506 82.9409 20.4506 82.5464 20.4141C82.5202 20.4073 82.4935 20.4015 82.4673 20.3948L76.0529 4.21149C75.365 2.47627 73.6993 1.33871 71.8471 1.33871C68.1397 0.907067 64.4238 0.580811 60.7031 0.352722C61.1272 0.781473 61.4778 1.29107 61.7101 1.8767C61.7101 1.8767 62.3417 3.35254 63.2485 5.46982L63.9339 4.98573C64.1252 4.85051 64.3852 4.87361 64.5507 5.04011L68.8371 9.3642C69.0022 9.53069 69.0251 9.79295 68.891 9.98639L66.599 13.2898C67.8335 16.1689 68.9449 18.7568 69.4215 19.8559C69.5698 20.1985 69.9009 20.4117 70.271 20.4285C77.2149 20.7403 82.7764 26.4021 83.0115 33.4263H85.0369C87.8909 33.4263 90.3394 35.6788 90.3918 38.5573C90.4448 41.4903 88.1041 43.8843 85.2091 43.8843H83.0234V55.0145C83.0234 55.8782 82.3294 56.5789 81.4727 56.5789H79.5713V62.0372C79.5713 62.9009 78.8768 63.6015 78.0205 63.6015H90.8999C91.7566 63.6015 92.4506 62.9009 92.4506 62.0372V56.5789H94.352C95.2082 56.5789 95.9028 55.8787 95.9028 55.0145V35.175C95.9023 28.4963 91.5028 22.7787 85.3646 20.9578Z" fill="#0060C9"/>
<path d="M16.8314 62.0377V56.5794H14.93C14.0738 56.5794 13.3792 55.8792 13.3792 55.015V43.8848H11.1936C11.0138 43.8848 10.8359 43.8752 10.6608 43.8573C10.604 43.8516 10.5492 43.8391 10.4929 43.8314C10.3755 43.8155 10.2577 43.8006 10.1432 43.777C10.0745 43.7626 10.0087 43.7414 9.94098 43.7245C9.84177 43.6995 9.74159 43.6774 9.64428 43.6466C9.57273 43.624 9.50404 43.5946 9.43392 43.5691C9.34424 43.5364 9.25313 43.5066 9.16584 43.469C9.09572 43.4387 9.02889 43.4026 8.96068 43.3694C8.8772 43.329 8.79186 43.2915 8.71077 43.2467C8.64351 43.2097 8.58002 43.1663 8.51467 43.1264C8.43644 43.0788 8.35683 43.033 8.28146 42.9816C8.21802 42.9378 8.15839 42.8887 8.09686 42.842C8.02483 42.7876 7.95089 42.7352 7.88173 42.6774C7.82162 42.6269 7.76624 42.5716 7.70852 42.5186C7.64317 42.4585 7.57548 42.4003 7.51347 42.3367C7.45766 42.2804 7.4071 42.2193 7.35415 42.1601C7.295 42.0947 7.23442 42.0307 7.17861 41.9619C7.12852 41.9003 7.08368 41.8344 7.03646 41.7704C6.98399 41.6992 6.92961 41.6294 6.88048 41.5553C6.83659 41.4889 6.79796 41.4186 6.75693 41.3503C6.71114 41.2738 6.66387 41.1992 6.62189 41.1203C6.58421 41.049 6.55182 40.9745 6.51747 40.9013C6.47931 40.821 6.43972 40.742 6.40585 40.6593C6.37485 40.5832 6.34952 40.5048 6.32185 40.4273C6.2918 40.3436 6.25989 40.2608 6.23413 40.1747C6.21028 40.0953 6.19263 40.014 6.17259 39.9331C6.15065 39.8456 6.1268 39.7585 6.10963 39.6694C6.09341 39.5876 6.08382 39.5034 6.0719 39.4202C6.05854 39.3287 6.0438 39.2383 6.03521 39.1459C6.02758 39.0612 6.02615 38.9751 6.02233 38.8889C6.01899 38.8115 6.01089 38.7349 6.01089 38.6565C6.01089 38.6397 6.01327 38.6238 6.01327 38.6069C6.01327 38.5906 6.01136 38.5747 6.01184 38.5583C6.01327 38.4915 6.02181 38.427 6.02563 38.3606C6.03135 38.2605 6.03569 38.1604 6.04666 38.0617C6.05286 38.0103 6.0624 37.9597 6.06956 37.9087C6.4297 35.3757 8.58341 33.4268 11.1941 33.4268H11.3658H13.3912C13.6264 26.4027 19.1879 20.7408 26.1317 20.429C26.5019 20.4122 26.8329 20.199 26.9813 19.8564C27.4578 18.7573 28.5692 16.1694 29.8037 13.2904L27.5117 9.98739C27.3777 9.79443 27.4006 9.53217 27.5656 9.3652L31.852 5.0411C32.0171 4.87461 32.277 4.85151 32.4688 4.98673L33.1543 5.47082C34.0611 3.35352 34.6926 1.87767 34.6926 1.87767C34.9244 1.29205 35.2751 0.782453 35.6996 0.353699C31.9789 0.581791 28.263 0.908042 24.5557 1.33968C22.7034 1.33968 21.0377 2.47773 20.3499 4.21246L13.9354 20.3958C13.9092 20.4025 13.8825 20.4083 13.8562 20.4151C13.4613 20.4516 13.073 20.507 12.6885 20.5739V18.6149C12.6885 15.2811 10.0097 12.5787 6.70494 12.5787H4.65377C2.26823 12.5787 0.352552 14.6069 0.509489 17.0476C0.652593 19.2746 2.58401 20.9588 4.79639 20.9588H11.0381C4.89943 22.7787 0.500427 28.4964 0.500427 35.1755V55.015C0.500427 55.8788 1.19448 56.5794 2.05119 56.5794H3.95256V62.0377C3.95256 62.9014 4.64709 63.6021 5.50335 63.6021H18.3827C17.5259 63.6021 16.8314 62.9014 16.8314 62.0377Z" fill="#59D2FC"/>
<path d="M48.2011 12.1138L44.6855 18.1568L48.2011 25.3012L54.6413 18.8045C54.8278 18.6163 55.1298 18.6163 55.3158 18.8045L58.0138 21.5266C58.2003 21.7148 58.1998 22.0194 58.0138 22.2071L48.2011 32.1059L47.2471 36.6869L48.2011 39.6011C48.567 39.6016 48.9348 39.592 49.3069 39.5621C55.9135 39.0367 61.266 33.6371 61.7869 26.9729C62.4199 18.8771 56.0933 12.1148 48.2011 12.1138Z" fill="#FFB322"/>
<path d="M45.7173 34.612C45.5308 34.7996 45.2289 34.7996 45.0428 34.612L38.3885 27.8992C38.202 27.711 38.202 27.4064 38.3885 27.2187L41.087 24.4966C41.2735 24.3084 41.5754 24.3084 41.7614 24.4966L45.0428 27.8068C45.2293 27.9949 45.5313 27.9949 45.7173 27.8068L48.2011 25.3012V12.1138C47.8352 12.1133 47.4675 12.1229 47.0954 12.1528C40.4888 12.6782 35.1363 18.0778 34.6154 24.742C33.9824 32.8387 40.3089 39.6011 48.2011 39.6015V36.6874V32.1058L45.7173 34.612Z" fill="#FFD251"/>
<path d="M107.149 27.6308V13.6322H110.083V19.408H116.039V13.6322H118.966V27.6308H116.039V21.8482H110.083V27.6308H107.149Z" fill="white"/>
<path d="M121.331 27.6308V17.1319H124.217V27.6308H121.331ZM122.78 15.7785C122.352 15.7785 121.983 15.6349 121.676 15.3479C121.374 15.0562 121.222 14.7076 121.222 14.3021C121.222 13.9011 121.374 13.557 121.676 13.2699C121.983 12.9783 122.352 12.8325 122.78 12.8325C123.21 12.8325 123.576 12.9783 123.879 13.2699C124.186 13.557 124.339 13.9011 124.339 14.3021C124.339 14.7076 124.186 15.0562 123.879 15.3479C123.576 15.6349 123.21 15.7785 122.78 15.7785Z" fill="white"/>
<path d="M135.189 20.1257L132.546 20.2897C132.501 20.0619 132.404 19.8568 132.255 19.6746C132.106 19.4877 131.909 19.3396 131.665 19.2303C131.426 19.1164 131.139 19.0594 130.805 19.0594C130.358 19.0594 129.98 19.1551 129.673 19.3465C129.366 19.5333 129.212 19.7839 129.212 20.0983C129.212 20.349 129.312 20.5609 129.511 20.734C129.71 20.9072 130.051 21.0462 130.534 21.151L132.417 21.5337C133.429 21.7433 134.184 22.0806 134.68 22.5454C135.177 23.0102 135.426 23.6208 135.426 24.3772C135.426 25.0653 135.225 25.6691 134.823 26.1885C134.425 26.7081 133.879 27.1136 133.183 27.4052C132.492 27.6923 131.695 27.8359 130.791 27.8359C129.414 27.8359 128.316 27.5465 127.498 26.9678C126.685 26.3845 126.209 25.5916 126.068 24.5891L128.908 24.4388C128.994 24.8625 129.201 25.1861 129.531 25.4093C129.861 25.6281 130.283 25.7374 130.798 25.7374C131.304 25.7374 131.711 25.6394 132.018 25.4435C132.329 25.243 132.488 24.9855 132.492 24.6711C132.488 24.4068 132.377 24.1904 132.16 24.0218C131.943 23.8486 131.609 23.7165 131.157 23.6253L129.355 23.2631C128.339 23.058 127.582 22.7026 127.085 22.1968C126.593 21.6909 126.347 21.0462 126.347 20.2624C126.347 19.588 126.527 19.007 126.888 18.5194C127.254 18.0318 127.767 17.6559 128.426 17.3916C129.09 17.1273 129.867 16.9951 130.758 16.9951C132.072 16.9951 133.106 17.2754 133.86 17.8359C134.619 18.3963 135.062 19.1596 135.189 20.1257Z" fill="white"/>
<path d="M142.779 17.1318V19.3192H136.512V17.1318H142.779ZM137.935 14.6165H140.821V24.4046C140.821 24.6735 140.862 24.8831 140.943 25.0334C141.024 25.1792 141.137 25.2818 141.282 25.341C141.431 25.4003 141.602 25.4299 141.797 25.4299C141.932 25.4299 142.068 25.4185 142.203 25.3957C142.339 25.3684 142.443 25.3479 142.515 25.3342L142.969 27.501C142.825 27.5465 142.621 27.5989 142.359 27.6582C142.097 27.722 141.779 27.7607 141.404 27.7744C140.708 27.8017 140.098 27.7083 139.574 27.4941C139.055 27.2799 138.651 26.9473 138.362 26.4962C138.072 26.045 137.93 25.4754 137.935 24.7874V14.6165Z" fill="white"/>
<path d="M149.25 27.8359C148.198 27.8359 147.287 27.6103 146.519 27.1592C145.756 26.7035 145.167 26.0701 144.751 25.259C144.335 24.4433 144.128 23.4978 144.128 22.4223C144.128 21.3378 144.335 20.39 144.751 19.5789C145.167 18.7632 145.756 18.1298 146.519 17.6787C147.287 17.223 148.198 16.9951 149.25 16.9951C150.303 16.9951 151.21 17.223 151.974 17.6787C152.742 18.1298 153.334 18.7632 153.749 19.5789C154.165 20.39 154.372 21.3378 154.372 22.4223C154.372 23.4978 154.165 24.4433 153.749 25.259C153.334 26.0701 152.742 26.7035 151.974 27.1592C151.21 27.6103 150.303 27.8359 149.25 27.8359ZM149.264 25.5802C149.743 25.5802 150.142 25.4435 150.463 25.1701C150.783 24.8922 151.025 24.5139 151.188 24.0355C151.355 23.557 151.439 23.0124 151.439 22.4018C151.439 21.7912 151.355 21.2467 151.188 20.7682C151.025 20.2897 150.783 19.9115 150.463 19.6336C150.142 19.3556 149.743 19.2166 149.264 19.2166C148.78 19.2166 148.374 19.3556 148.044 19.6336C147.719 19.9115 147.472 20.2897 147.306 20.7682C147.143 21.2467 147.061 21.7912 147.061 22.4018C147.061 23.0124 147.143 23.557 147.306 24.0355C147.472 24.5139 147.719 24.8922 148.044 25.1701C148.374 25.4435 148.78 25.5802 149.264 25.5802ZM148.213 15.7785L149.65 12.6684H152.319L150.253 15.7785H148.213Z" fill="white"/>
<path d="M156.25 27.6308V17.1318H159.048V18.9637H159.156C159.346 18.3121 159.664 17.8199 160.111 17.4872C160.559 17.1501 161.074 16.9814 161.656 16.9814C161.801 16.9814 161.957 16.9905 162.124 17.0088C162.291 17.027 162.438 17.0521 162.564 17.084V19.6677C162.429 19.6267 162.241 19.5902 162.002 19.5583C161.763 19.5264 161.543 19.5105 161.345 19.5105C160.92 19.5105 160.541 19.6039 160.206 19.7908C159.877 19.973 159.615 20.2282 159.421 20.5563C159.231 20.8844 159.136 21.2626 159.136 21.6909V27.6308H156.25Z" fill="white"/>
<path d="M164.057 27.6308V17.1319H166.943V27.6308H164.057ZM165.507 15.7785C165.078 15.7785 164.709 15.6349 164.402 15.3479C164.1 15.0562 163.948 14.7076 163.948 14.3021C163.948 13.9011 164.1 13.557 164.402 13.2699C164.709 12.9783 165.078 12.8325 165.507 12.8325C165.936 12.8325 166.302 12.9783 166.604 13.2699C166.912 13.557 167.065 13.9011 167.065 14.3021C167.065 14.7076 166.912 15.0562 166.604 15.3479C166.302 15.6349 165.936 15.7785 165.507 15.7785Z" fill="white"/>
<path d="M173.958 27.8359C172.892 27.8359 171.975 27.608 171.207 27.1523C170.443 26.6921 169.856 26.0541 169.445 25.2385C169.039 24.4228 168.835 23.4841 168.835 22.4223C168.835 21.3469 169.041 20.4036 169.452 19.5925C169.868 18.7769 170.457 18.1412 171.221 17.6855C171.984 17.2252 172.892 16.9951 173.944 16.9951C174.852 16.9951 175.647 17.1615 176.329 17.4941C177.011 17.8267 177.551 18.2938 177.949 18.8953C178.346 19.4968 178.565 20.2032 178.606 21.0143H175.882C175.805 20.4902 175.602 20.0687 175.272 19.7497C174.947 19.4262 174.52 19.2644 173.991 19.2644C173.545 19.2644 173.154 19.3875 172.819 19.6336C172.49 19.8751 172.232 20.2282 172.047 20.693C171.862 21.1578 171.769 21.7206 171.769 22.3813C171.769 23.0512 171.86 23.6208 172.04 24.0901C172.226 24.5595 172.485 24.9172 172.819 25.1632C173.154 25.4093 173.545 25.5324 173.991 25.5324C174.322 25.5324 174.617 25.464 174.879 25.3273C175.146 25.1906 175.365 24.9924 175.537 24.7327C175.713 24.4683 175.828 24.1517 175.882 23.7825H178.606C178.561 24.5846 178.344 25.2909 177.955 25.9015C177.571 26.5075 177.041 26.9815 176.363 27.3232C175.686 27.665 174.884 27.8359 173.958 27.8359Z" fill="white"/>
<path d="M185.156 27.8359C184.104 27.8359 183.194 27.6103 182.426 27.1592C181.662 26.7035 181.073 26.0701 180.657 25.259C180.242 24.4433 180.034 23.4978 180.034 22.4223C180.034 21.3378 180.242 20.39 180.657 19.5788C181.073 18.7632 181.662 18.1298 182.426 17.6787C183.194 17.223 184.104 16.9951 185.156 16.9951C186.209 16.9951 187.117 17.223 187.88 17.6787C188.648 18.1298 189.24 18.7632 189.656 19.5788C190.071 20.39 190.279 21.3378 190.279 22.4223C190.279 23.4978 190.071 24.4433 189.656 25.259C189.24 26.0701 188.648 26.7035 187.88 27.1592C187.117 27.6103 186.209 27.8359 185.156 27.8359ZM185.17 25.5802C185.649 25.5802 186.048 25.4435 186.369 25.1701C186.69 24.8921 186.932 24.5139 187.094 24.0355C187.261 23.557 187.345 23.0124 187.345 22.4018C187.345 21.7912 187.261 21.2466 187.094 20.7682C186.932 20.2897 186.69 19.9115 186.369 19.6336C186.048 19.3556 185.649 19.2166 185.17 19.2166C184.687 19.2166 184.28 19.3556 183.951 19.6336C183.625 19.9115 183.379 20.2897 183.212 20.7682C183.049 21.2466 182.968 21.7912 182.968 22.4018C182.968 23.0124 183.049 23.557 183.212 24.0355C183.379 24.5139 183.625 24.8921 183.951 25.1701C184.28 25.4435 184.687 25.5802 185.17 25.5802Z" fill="white"/>
<path d="M109.656 36.7299L113.01 47.3656H113.139L116.5 36.7299H119.752L114.968 50.7284H111.187L106.397 36.7299H109.656Z" fill="white"/>
<path d="M124.937 50.9334C123.867 50.9334 122.945 50.715 122.173 50.2776C121.405 49.8353 120.813 49.2112 120.397 48.4047C119.982 47.5935 119.774 46.6343 119.774 45.5269C119.774 44.447 119.982 43.4991 120.397 42.6835C120.813 41.8678 121.398 41.2321 122.152 40.7764C122.911 40.3207 123.801 40.0929 124.822 40.0929C125.509 40.0929 126.148 40.2045 126.739 40.4278C127.335 40.6466 127.855 40.9769 128.298 41.4189C128.745 41.861 129.093 42.4169 129.341 43.0867C129.59 43.7521 129.714 44.5313 129.714 45.4244V46.2241H120.926V44.4196H126.997C126.997 44.0004 126.907 43.629 126.726 43.3055C126.545 42.9819 126.295 42.729 125.974 42.5467C125.657 42.3599 125.29 42.2665 124.869 42.2665C124.431 42.2665 124.043 42.369 123.704 42.5741C123.37 42.7746 123.108 43.0457 122.918 43.3875C122.728 43.7247 122.631 44.1006 122.626 44.5153V46.231C122.626 46.7504 122.721 47.1993 122.911 47.5775C123.105 47.9558 123.379 48.2474 123.731 48.4524C124.083 48.6573 124.501 48.7598 124.984 48.7598C125.305 48.7598 125.599 48.7146 125.865 48.6232C126.132 48.5322 126.36 48.3956 126.55 48.2132C126.739 48.0309 126.884 47.8076 126.983 47.5434L129.653 47.7211C129.517 48.3681 129.24 48.9331 128.819 49.4162C128.404 49.8945 127.866 50.2684 127.207 50.5374C126.552 50.8016 125.795 50.9334 124.937 50.9334Z" fill="white"/>
<path d="M131.598 50.7284V40.2296H134.484V50.7284H131.598ZM133.048 38.8762C132.618 38.8762 132.25 38.7327 131.943 38.4456C131.64 38.154 131.489 37.8053 131.489 37.3998C131.489 36.9988 131.64 36.6547 131.943 36.3676C132.25 36.076 132.618 35.9302 133.048 35.9302C133.477 35.9302 133.843 36.076 134.145 36.3676C134.452 36.6547 134.606 36.9988 134.606 37.3998C134.606 37.8053 134.452 38.154 134.145 38.4456C133.843 38.7327 133.477 38.8762 133.048 38.8762Z" fill="white"/>
<path d="M141.499 50.9334C140.433 50.9334 139.515 50.7058 138.747 50.2501C137.984 49.7901 137.397 49.152 136.986 48.3364C136.579 47.5206 136.376 46.5819 136.376 45.5201C136.376 44.4447 136.582 43.5014 136.993 42.6903C137.408 41.8746 137.998 41.2389 138.761 40.7833C139.524 40.323 140.433 40.0929 141.485 40.0929C142.393 40.0929 143.188 40.2592 143.87 40.5919C144.552 40.9245 145.092 41.3916 145.49 41.9931C145.887 42.5946 146.106 43.3009 146.147 44.112H143.423C143.346 43.588 143.143 43.1665 142.813 42.8475C142.488 42.524 142.061 42.3622 141.533 42.3622C141.085 42.3622 140.695 42.4852 140.36 42.7313C140.031 42.9728 139.773 43.326 139.588 43.7908C139.403 44.2556 139.31 44.8184 139.31 45.4791C139.31 46.1489 139.4 46.7186 139.581 47.1879C139.766 47.6573 140.026 48.015 140.36 48.2608C140.695 48.5072 141.085 48.6299 141.533 48.6299C141.862 48.6299 142.158 48.5616 142.42 48.4249C142.687 48.2883 142.906 48.0902 143.077 47.8304C143.253 47.5661 143.369 47.2494 143.423 46.8803H146.147C146.102 47.6823 145.885 48.3888 145.496 48.9995C145.112 49.6053 144.582 50.0793 143.904 50.421C143.227 50.7626 142.425 50.9334 141.499 50.9334Z" fill="white"/>
<path d="M154.669 46.2583V40.2296H157.556V50.7284H154.784V48.8214H154.676C154.441 49.4368 154.05 49.931 153.503 50.3049C152.961 50.6784 152.3 50.8651 151.518 50.8651C150.823 50.8651 150.211 50.7058 149.682 50.3867C149.153 50.0677 148.74 49.6144 148.442 49.0264C148.148 48.4388 148 47.7347 147.995 46.9144V40.2296H150.881V46.395C150.886 47.0147 151.051 47.5046 151.376 47.8646C151.701 48.2247 152.137 48.4047 152.684 48.4047C153.032 48.4047 153.357 48.3248 153.659 48.1655C153.962 48.0013 154.206 47.7598 154.391 47.4408C154.581 47.1218 154.673 46.7276 154.669 46.2583Z" fill="white"/>
<path d="M162.751 36.7299V50.7284H159.864V36.7299H162.751Z" fill="white"/>
<path d="M168.031 50.9267C167.367 50.9267 166.775 50.8107 166.255 50.5783C165.736 50.3411 165.325 49.9927 165.022 49.5322C164.724 49.0678 164.575 48.4889 164.575 47.7962C164.575 47.213 164.681 46.7231 164.893 46.3267C165.106 45.9302 165.395 45.6112 165.761 45.3697C166.127 45.1282 166.542 44.9459 167.008 44.8229C167.477 44.6999 167.97 44.6133 168.485 44.5632C169.09 44.4994 169.578 44.4401 169.948 44.3855C170.318 44.3262 170.588 44.2396 170.754 44.1257C170.922 44.0118 171.005 43.8432 171.005 43.6199V43.5789C171.005 43.146 170.87 42.8111 170.598 42.5741C170.332 42.3371 169.953 42.2187 169.46 42.2187C168.941 42.2187 168.528 42.3349 168.221 42.5673C167.913 42.7951 167.71 43.0822 167.61 43.4285L164.941 43.2098C165.077 42.5718 165.343 42.0205 165.741 41.5557C166.138 41.0863 166.651 40.7263 167.278 40.4757C167.911 40.2205 168.643 40.0929 169.474 40.0929C170.052 40.0929 170.606 40.1613 171.134 40.298C171.667 40.4346 172.139 40.6466 172.55 40.9337C172.966 41.2207 173.293 41.5898 173.533 42.041C173.772 42.4875 173.892 43.0229 173.892 43.6473V50.7284H171.154V49.2728H171.073C170.906 49.601 170.682 49.8902 170.402 50.1409C170.122 50.3868 169.786 50.5807 169.393 50.7217C169 50.8584 168.545 50.9267 168.031 50.9267ZM168.857 48.9172C169.282 48.9172 169.657 48.833 169.982 48.6646C170.307 48.4913 170.563 48.2589 170.748 47.9671C170.933 47.6755 171.025 47.3451 171.025 46.976V45.8618C170.935 45.9211 170.811 45.9758 170.653 46.0259C170.499 46.0715 170.326 46.1148 170.131 46.1558C169.937 46.1922 169.743 46.2264 169.549 46.2583C169.354 46.2856 169.178 46.3107 169.02 46.3335C168.681 46.3836 168.385 46.4634 168.132 46.5727C167.88 46.6821 167.683 46.8302 167.543 47.017C167.403 47.1993 167.333 47.4272 167.333 47.7006C167.333 48.097 167.475 48.3999 167.76 48.6097C168.049 48.8147 168.415 48.9172 168.857 48.9172Z" fill="white"/>
<path d="M176.131 50.7284V40.2296H178.929V42.0614H179.038C179.228 41.4098 179.546 40.9177 179.993 40.585C180.441 40.2478 180.955 40.0792 181.538 40.0792C181.683 40.0792 181.838 40.0883 182.006 40.1066C182.173 40.1248 182.32 40.1499 182.446 40.1818V42.7655C182.311 42.7245 182.123 42.688 181.884 42.6561C181.644 42.6242 181.425 42.6083 181.226 42.6083C180.802 42.6083 180.423 42.7017 180.088 42.8885C179.759 43.0708 179.496 43.326 179.302 43.6541C179.112 43.9822 179.018 44.3604 179.018 44.7887V50.7284H176.131Z" fill="white"/>
<path d="M190.916 36.7299L194.27 47.3656H194.399L197.759 36.7299H201.012L196.228 50.7284H192.447L187.656 36.7299H190.916Z" fill="white"/>
<path d="M202.627 50.7284V40.2296H205.514V50.7284H202.627ZM204.078 38.8762C203.649 38.8762 203.28 38.7327 202.973 38.4456C202.67 38.154 202.519 37.8053 202.519 37.3998C202.519 36.9988 202.67 36.6547 202.973 36.3676C203.28 36.076 203.649 35.9302 204.078 35.9302C204.507 35.9302 204.873 36.076 205.175 36.3676C205.482 36.6547 205.636 36.9988 205.636 37.3998C205.636 37.8053 205.482 38.154 205.175 38.4456C204.873 38.7327 204.507 38.8762 204.078 38.8762Z" fill="white"/>
<path d="M207.826 50.7284V40.2296H210.625V42.0614H210.733C210.923 41.4098 211.241 40.9177 211.688 40.585C212.136 40.2478 212.65 40.0792 213.233 40.0792C213.378 40.0792 213.534 40.0883 213.701 40.1066C213.868 40.1248 214.015 40.1499 214.141 40.1818V42.7655C214.006 42.7245 213.818 42.688 213.579 42.6561C213.34 42.6242 213.12 42.6083 212.922 42.6083C212.497 42.6083 212.118 42.7017 211.783 42.8885C211.454 43.0708 211.192 43.326 210.998 43.6541C210.808 43.9822 210.713 44.3604 210.713 44.7887V50.7284H207.826Z" fill="white"/>
<path d="M221.691 40.2296V42.4169H215.424V40.2296H221.691ZM216.847 37.7142H219.733V47.5023C219.733 47.7712 219.774 47.9808 219.855 48.1314C219.936 48.2772 220.049 48.3797 220.194 48.4388C220.343 48.498 220.514 48.5274 220.709 48.5274C220.844 48.5274 220.979 48.5163 221.115 48.4932C221.251 48.4663 221.354 48.4456 221.427 48.4321L221.881 50.5985C221.736 50.6442 221.533 50.6966 221.271 50.7558C221.009 50.8198 220.69 50.8583 220.315 50.8723C219.62 50.8992 219.01 50.8059 218.486 50.5917C217.967 50.3776 217.563 50.0451 217.273 49.5937C216.984 49.1428 216.842 48.5731 216.847 47.8851V37.7142Z" fill="white"/>
<path d="M230.245 46.2583V40.2296H233.132V50.7284H230.361V48.8214H230.252C230.017 49.4368 229.627 49.931 229.08 50.3049C228.538 50.6784 227.876 50.8651 227.095 50.8651C226.399 50.8651 225.787 50.7058 225.259 50.3867C224.73 50.0677 224.317 49.6144 224.019 49.0264C223.725 48.4388 223.576 47.7347 223.572 46.9144V40.2296H226.458V46.395C226.462 47.0147 226.627 47.5046 226.953 47.8646C227.277 48.2247 227.713 48.4047 228.26 48.4047C228.608 48.4047 228.933 48.3248 229.236 48.1655C229.539 48.0013 229.782 47.7598 229.968 47.4408C230.157 47.1218 230.25 46.7276 230.245 46.2583Z" fill="white"/>
<path d="M238.409 50.9267C237.745 50.9267 237.153 50.8107 236.633 50.5783C236.114 50.3411 235.703 49.9927 235.4 49.5322C235.102 49.0678 234.953 48.4889 234.953 47.7962C234.953 47.213 235.059 46.7231 235.271 46.3267C235.483 45.9302 235.773 45.6112 236.139 45.3697C236.505 45.1282 236.92 44.9459 237.385 44.8229C237.855 44.6999 238.347 44.6133 238.863 44.5632C239.468 44.4994 239.955 44.4401 240.326 44.3855C240.696 44.3262 240.965 44.2396 241.132 44.1257C241.3 44.0118 241.383 43.8432 241.383 43.6199V43.5789C241.383 43.146 241.248 42.8111 240.977 42.5741C240.71 42.3371 240.33 42.2187 239.838 42.2187C239.319 42.2187 238.906 42.3349 238.598 42.5673C238.291 42.7951 238.088 43.0822 237.988 43.4285L235.319 43.2098C235.454 42.5718 235.721 42.0205 236.118 41.5557C236.516 41.0863 237.029 40.7263 237.656 40.4757C238.289 40.2205 239.021 40.0929 239.852 40.0929C240.43 40.0929 240.983 40.1613 241.512 40.298C242.045 40.4346 242.517 40.6466 242.928 40.9337C243.344 41.2207 243.671 41.5898 243.91 42.041C244.15 42.4875 244.27 43.0229 244.27 43.6473V50.7284H241.532V49.2728H241.451C241.283 49.601 241.06 49.8902 240.78 50.1409C240.5 50.3868 240.163 50.5807 239.77 50.7217C239.377 50.8584 238.924 50.9267 238.409 50.9267ZM239.235 48.9172C239.66 48.9172 240.035 48.833 240.36 48.6646C240.685 48.4913 240.941 48.2589 241.126 47.9671C241.311 47.6755 241.403 47.3451 241.403 46.976V45.8618C241.313 45.9211 241.189 45.9758 241.031 46.0259C240.877 46.0715 240.703 46.1148 240.509 46.1558C240.315 46.1922 240.121 46.2264 239.926 46.2583C239.732 46.2856 239.556 46.3107 239.398 46.3335C239.059 46.3836 238.763 46.4634 238.51 46.5727C238.257 46.6821 238.061 46.8302 237.921 47.017C237.781 47.1993 237.711 47.4272 237.711 47.7006C237.711 48.097 237.853 48.3999 238.138 48.6097C238.427 48.8147 238.793 48.9172 239.235 48.9172Z" fill="white"/>
<path d="M249.396 36.7299V50.7284H246.509V36.7299H249.396Z" fill="white"/>
</g>
<defs>
<clipPath id="clip0_5_340">
<rect width="249" height="64" fill="white" transform="translate(0.5)"/>
</clipPath>
</defs>
</svg>
