<svg width="24" height="24" viewBox="0 0 24 24" fill="none" xmlns="http://www.w3.org/2000/svg">
<path d="M3.46875 0.0328139C2.52656 0.192189 1.68281 0.937501 1.39219 1.85156L1.28906 2.17969V10.5V18.8203L1.41094 19.1531C1.56563 19.575 1.82344 19.9641 2.12813 20.2313C2.33438 20.4141 7.28438 23.3203 8.07188 23.7234C8.40469 23.8922 8.84063 24 9.19688 24C10.0547 24 11.0016 23.475 11.4328 22.7578C11.7375 22.2516 11.7844 22.0547 11.8125 21.0703L11.8359 20.1797L14.0156 20.1563C16.1203 20.1328 16.2047 20.1281 16.4672 20.0297C17.3484 19.6969 17.9719 18.975 18.1641 18.0703C18.2484 17.6719 18.2672 14.7141 18.1875 14.4281C18.0844 14.0578 17.7609 13.8141 17.3672 13.8141C16.9922 13.8141 16.7203 14.0016 16.5703 14.3531C16.5141 14.4984 16.5 14.7938 16.5 16.1344C16.5 17.5922 16.4906 17.7609 16.4109 17.9297C16.3078 18.1641 16.0875 18.3563 15.8531 18.4219C15.7453 18.45 14.9297 18.4688 13.7484 18.4688H11.8125V12.525C11.8125 5.99531 11.8266 6.35156 11.5266 5.75156C11.4328 5.56875 11.2547 5.33906 11.0438 5.13281C10.7391 4.83281 10.4859 4.67813 8.0625 3.28125L5.40938 1.75781L10.6359 1.74375L15.8672 1.73438L16.0734 1.86094C16.2047 1.94531 16.3219 2.06719 16.3922 2.19844C16.5 2.40469 16.5 2.40938 16.5 4.2375C16.5 5.91563 16.5094 6.08438 16.5891 6.25781C16.8563 6.84844 17.6063 6.95625 18.0188 6.46875C18.2297 6.21563 18.2438 6.075 18.225 4.03594C18.2109 2.18906 18.2063 2.12344 18.1031 1.82813C17.9531 1.41094 17.7938 1.14844 17.4938 0.834376C17.1891 0.510939 16.8844 0.309376 16.4625 0.145314L16.1484 0.0234389L9.86719 0.0187514C6.4125 0.0140639 3.53438 0.0187514 3.46875 0.0328139Z" fill="#FAFAFA"/>
<path d="M19.2656 6.83906C18.8484 6.97031 18.6094 7.27031 18.6094 7.65937C18.6094 7.99687 18.6984 8.1375 19.2609 8.69531L19.7813 9.21094L16.4578 9.23437L13.1344 9.25781L12.9516 9.40312C12.7219 9.59062 12.6094 9.81094 12.6094 10.0969C12.6094 10.4062 12.7828 10.6969 13.0453 10.8422L13.2422 10.9453L16.4906 10.9687L19.7344 10.9922L19.2609 11.4609C19.0031 11.7187 18.75 12.0094 18.6984 12.1031C18.6 12.2953 18.5813 12.6234 18.6609 12.8297C18.7688 13.1156 19.1297 13.3594 19.4531 13.3594C19.7813 13.3594 19.9594 13.2141 21.3141 11.8547C22.4109 10.7484 22.6406 10.4906 22.6828 10.3359C22.7484 10.1016 22.7484 10.0547 22.6828 9.82031C22.6406 9.66562 22.4109 9.4125 21.3563 8.35312C20.6578 7.64531 20.0016 7.02187 19.8984 6.96094C19.6828 6.83437 19.4344 6.7875 19.2656 6.83906Z" fill="#FAFAFA"/>
</svg>
