<svg width="24" height="30" viewBox="0 0 24 30" fill="none" xmlns="http://www.w3.org/2000/svg">
<g id="Group">
<path id="Vector" d="M11.3437 0.35C8.46874 0.6625 6.06874 2.29375 4.84374 4.78125C2.21874 10.1187 6.06249 16.3125 12 16.3125C14.1562 16.3125 16.1437 15.4937 17.6562 13.9687C19.1062 12.5125 19.8937 10.7125 19.9812 8.625C20.1312 5.0875 17.8187 1.78125 14.4625 0.73125C13.5125 0.43125 12.1437 0.26875 11.3437 0.35Z" fill="#FAFAFA"/>
<path id="Vector_2" d="M7.18761 17.7813C5.28761 18.1063 3.70011 18.9563 2.33761 20.3875C0.943857 21.8438 0.131357 23.7438 0.0251068 25.7813C-0.0123932 26.425 0.000106752 26.6063 0.112607 27.05C0.418857 28.2625 1.25011 29.1313 2.46886 29.5188L2.90636 29.6562H12.0001H21.0939L21.5314 29.5188C22.7501 29.1313 23.5814 28.2625 23.8876 27.05C23.9939 26.6125 24.0126 26.4188 23.9814 25.8375C23.8626 23.675 23.0564 21.825 21.5439 20.2688C20.3314 19.0188 18.9751 18.2625 17.1689 17.8375C16.7689 17.7375 16.2376 17.725 12.1876 17.7125C8.71261 17.7 7.54386 17.7188 7.18761 17.7813Z" fill="#FAFAFA"/>
</g>
</svg>
