<svg width="25" height="25" viewBox="0 0 25 25" fill="none" xmlns="http://www.w3.org/2000/svg">
<g clip-path="url(#clip0_363_605)">
<path d="M12.0548 0.579688C11.5907 0.748438 11.3517 1.00156 11.136 1.55L11.0095 1.88281L10.1704 1.90625C9.21417 1.93438 9.05011 1.98125 8.70324 2.32813C8.38449 2.64688 8.30949 2.8625 8.29074 3.55156C8.27199 4.08125 8.28136 4.16094 8.37042 4.33438C8.43605 4.46563 8.53449 4.56406 8.65636 4.625C8.83449 4.71875 8.92355 4.71875 12.5001 4.71875C16.0767 4.71875 16.1657 4.71875 16.3439 4.625C16.4657 4.56406 16.5642 4.46563 16.6298 4.33438C16.7189 4.16094 16.7282 4.08125 16.7095 3.55156C16.6907 2.8625 16.6157 2.64688 16.297 2.32813C15.9501 1.98125 15.786 1.93438 14.8298 1.90625L13.9907 1.88281L13.8501 1.5125C13.611 0.89375 13.1798 0.55625 12.5751 0.514063C12.3782 0.504688 12.2142 0.523438 12.0548 0.579688Z" fill="#FAFAFA"/>
<path d="M5.05162 3.36406C4.24537 3.52343 3.561 4.22187 3.40631 5.05156C3.3735 5.22499 3.36412 8.24374 3.36881 14.0281L3.38287 22.7422L3.48131 23.0141C3.74381 23.7219 4.36725 24.2937 5.05162 24.4484C5.33756 24.5141 19.6626 24.5141 19.9485 24.4484C20.6329 24.2937 21.2563 23.7219 21.5188 23.0141L21.6172 22.7422L21.6313 14.0281C21.636 8.24374 21.6266 5.22499 21.5938 5.05156C21.4391 4.20312 20.7594 3.51874 19.911 3.35937C19.7704 3.33593 19.3157 3.31249 18.8938 3.31249H18.1251V3.72968C18.1251 3.95468 18.1016 4.25468 18.0782 4.39531C17.9188 5.23906 17.2391 5.91874 16.3954 6.07812C16.0532 6.14374 8.94693 6.14374 8.60475 6.07812C7.761 5.91874 7.08131 5.23906 6.92193 4.39531C6.8985 4.25468 6.87506 3.95468 6.87506 3.72968V3.31249L6.06881 3.31718C5.6235 3.32187 5.16412 3.34062 5.05162 3.36406ZM11.4219 7.62968C11.7501 7.81249 11.8813 8.21093 11.7219 8.52968C11.6235 8.72656 8.92818 11.4406 8.661 11.6141C8.21568 11.9 8.00475 11.7969 7.011 10.7844C6.2985 10.0578 6.17193 9.88906 6.17193 9.63593C6.17193 9.29843 6.53287 8.93749 6.87037 8.93749C7.10943 8.93749 7.28756 9.05937 7.80318 9.56562L8.286 10.0344L9.44381 8.88124C10.0813 8.24843 10.6766 7.68124 10.7657 7.62968C10.9766 7.50312 11.1969 7.50312 11.4219 7.62968ZM18.4532 9.03124C18.6641 9.13906 18.8282 9.40624 18.8282 9.64062C18.8282 9.87499 18.6641 10.1422 18.4532 10.25C18.2751 10.3391 18.1813 10.3437 16.0157 10.3437C13.8501 10.3437 13.7563 10.3391 13.5782 10.25C13.3672 10.1422 13.2032 9.87499 13.2032 9.64062C13.2032 9.41562 13.3672 9.13906 13.5688 9.03593C13.7329 8.94687 13.8454 8.94218 16.0063 8.93749C18.186 8.93749 18.2751 8.94218 18.4532 9.03124ZM11.4219 12.5516C11.7501 12.7344 11.8813 13.1328 11.7219 13.4516C11.6235 13.6484 8.92818 16.3625 8.661 16.5359C8.21568 16.8219 8.00475 16.7187 7.011 15.7062C6.2985 14.9797 6.17193 14.8109 6.17193 14.5578C6.17193 14.2203 6.53287 13.8594 6.87037 13.8594C7.10943 13.8594 7.28756 13.9812 7.80318 14.4875L8.286 14.9562L9.44381 13.8031C10.0813 13.1703 10.6766 12.6031 10.7657 12.5516C10.9766 12.425 11.1969 12.425 11.4219 12.5516ZM18.4532 13.9531C18.6641 14.0609 18.8282 14.3281 18.8282 14.5625C18.8282 14.7969 18.6641 15.0641 18.4532 15.1719C18.2751 15.2609 18.1813 15.2656 16.0157 15.2656C13.8501 15.2656 13.7563 15.2609 13.5782 15.1719C13.3672 15.0641 13.2032 14.7969 13.2032 14.5625C13.2032 14.3375 13.3672 14.0609 13.5688 13.9578C13.7329 13.8687 13.8454 13.8641 16.0063 13.8594C18.186 13.8594 18.2751 13.8641 18.4532 13.9531ZM11.4219 17.4734C11.7501 17.6562 11.8813 18.0547 11.7219 18.3734C11.6235 18.5703 8.92818 21.2844 8.661 21.4578C8.21568 21.7437 8.00475 21.6406 7.011 20.6281C6.2985 19.9016 6.17193 19.7328 6.17193 19.4797C6.17193 19.1422 6.53287 18.7812 6.87037 18.7812C7.10943 18.7812 7.28756 18.9031 7.80318 19.4094L8.286 19.8781L9.44381 18.725C10.0813 18.0922 10.6766 17.525 10.7657 17.4734C10.9766 17.3469 11.1969 17.3469 11.4219 17.4734ZM18.4532 18.875C18.6641 18.9828 18.8282 19.25 18.8282 19.4844C18.8282 19.7187 18.6641 19.9859 18.4532 20.0937C18.2751 20.1828 18.1813 20.1875 16.0157 20.1875C13.8501 20.1875 13.7563 20.1828 13.5782 20.0937C13.3672 19.9859 13.2032 19.7187 13.2032 19.4844C13.2032 19.2594 13.3672 18.9828 13.5688 18.8797C13.7329 18.7906 13.8454 18.7859 16.0063 18.7812C18.186 18.7812 18.2751 18.7859 18.4532 18.875Z" fill="#FAFAFA"/>
</g>
<defs>
<clipPath id="clip0_363_605">
<rect width="24" height="24" fill="white" transform="translate(0.5 0.5)"/>
</clipPath>
</defs>
</svg>
