<svg width="24" height="24" viewBox="0 0 24 24" fill="none" xmlns="http://www.w3.org/2000/svg">
<g clip-path="url(#clip0_236_985)">
<path d="M11.3061 2.84061L11.3202 5.6953L11.7655 5.72811C13.8562 5.88749 16.0733 6.66092 17.9249 7.87499C19.9593 9.21561 21.5202 10.9734 22.5937 13.1484C23.2312 14.4328 23.564 15.4453 23.789 16.7578C23.9718 17.8453 24.0046 18.5766 23.9905 21.3703L23.9765 23.9719L23.1374 22.0031C22.214 19.8375 21.9562 19.3125 21.4358 18.525C20.5921 17.2453 19.6171 16.214 18.3749 15.2859C16.3968 13.8047 13.9827 12.9094 11.4936 12.7359L11.2968 12.7219V15.5484C11.2968 17.1047 11.2827 18.375 11.2687 18.375C11.2546 18.375 9.51084 16.9594 7.39209 15.225C5.27334 13.4906 2.75146 11.4328 1.79052 10.6453C0.834274 9.86249 0.0467739 9.20624 0.0467739 9.18749C0.0467739 9.16874 0.599897 8.70467 1.2749 8.15155C1.95459 7.60311 4.44834 5.56874 6.82021 3.63749C9.19209 1.71092 11.1702 0.0984249 11.2124 0.0562363C11.2921 -0.00938797 11.2968 0.131237 11.3061 2.84061Z" fill="#1D242B"/>
</g>
<defs>
<clipPath id="clip0_236_985">
<rect width="24" height="24" fill="white" transform="matrix(-1 0 0 1 24 0)"/>
</clipPath>
</defs>
</svg>
